<?xml version="1.0" encoding="UTF-8"?>
<svg xmlns="http://www.w3.org/2000/svg" xmlns:xlink="http://www.w3.org/1999/xlink" width="613" height="205" viewBox="110 172 613 205" version="1.2">
<g id="surface1">
<path style=" stroke:none;fill-rule:nonzero;fill:rgb(10.980225%,19.215393%,15.293884%);fill-opacity:1;" d="M 583.128906 249.429688 C 573.964844 242.484375 568.136719 229.4375 568.136719 218.886719 C 568.136719 191.394531 593.679688 173.902344 620.613281 173.902344 C 649.769531 173.902344 670.039062 191.394531 670.039062 213.886719 C 670.039062 224.4375 664.207031 230.269531 655.875 230.269531 C 647.824219 230.269531 643.660156 222.773438 643.382812 216.941406 C 642.546875 197.226562 628.664062 191.117188 615.058594 191.117188 C 597.566406 191.117188 583.128906 203.058594 583.128906 219.996094 C 583.128906 230.546875 587.570312 239.710938 595.902344 246.097656 C 602.84375 244.984375 607.5625 244.707031 612.5625 244.707031 C 619.78125 244.707031 626.167969 247.207031 626.167969 253.59375 C 626.167969 259.421875 620.890625 262.199219 612.839844 262.199219 C 606.730469 262.199219 597.289062 259.703125 591.457031 257.480469 C 567.578125 260.257812 537.59375 274.695312 537.59375 304.683594 C 537.59375 333.835938 566.191406 351.609375 597.84375 351.609375 C 624.777344 351.609375 643.382812 339.113281 643.382812 318.566406 C 643.382812 303.847656 630.332031 292.1875 611.171875 292.1875 C 593.402344 292.1875 583.128906 300.519531 583.128906 309.957031 C 583.128906 311.902344 584.238281 313.289062 585.628906 313.289062 C 587.015625 313.289062 587.847656 312.457031 588.960938 311.902344 C 591.738281 310.234375 594.234375 309.125 598.398438 309.125 C 604.230469 309.125 609.507812 313.011719 609.507812 319.675781 C 609.507812 326.894531 604.230469 332.171875 593.402344 332.171875 C 582.574219 332.171875 571.1875 324.117188 571.1875 308.847656 C 571.1875 284.96875 596.734375 270.53125 629.5 270.53125 C 644.769531 270.53125 653.65625 272.75 661.429688 274.972656 C 669.203125 277.472656 676.144531 279.691406 687.253906 279.691406 C 700.578125 279.691406 709.742188 274.417969 709.742188 266.644531 C 709.742188 262.753906 707.523438 260.257812 701.691406 260.257812 C 699.746094 260.257812 698.082031 260.8125 696.136719 261.367188 C 694.195312 262.199219 691.972656 262.753906 688.363281 262.753906 C 680.867188 262.753906 675.867188 256.925781 675.867188 250.816406 C 675.867188 242.765625 683.644531 236.933594 693.082031 236.933594 C 709.1875 236.933594 721.128906 248.039062 721.128906 265.808594 C 721.128906 279.96875 712.242188 299.683594 686.695312 299.683594 C 673.925781 299.683594 665.871094 294.964844 656.988281 290.242188 C 648.101562 285.800781 638.382812 281.082031 622.835938 281.082031 C 612.839844 281.082031 603.953125 283.023438 596.734375 287.46875 C 603.398438 284.691406 610.617188 283.859375 617.558594 283.859375 C 645.324219 283.859375 664.207031 300.238281 664.207031 324.117188 C 664.207031 349.664062 638.105469 375.207031 591.738281 375.207031 C 551.753906 375.207031 518.988281 351.050781 518.988281 315.234375 C 518.988281 272.75 558.417969 253.871094 583.128906 249.429688 M 389.515625 321.691406 L 413.695312 321.691406 C 416.652344 339.15625 431.699219 347.484375 450.234375 347.484375 C 465.820312 347.484375 481.132812 340.769531 481.132812 327.332031 C 481.132812 314.976562 469.847656 309.601562 449.699219 305.839844 L 435.457031 303.15625 C 408.859375 298.316406 393.007812 286.226562 393.007812 265.003906 C 393.007812 238.941406 417.1875 222.554688 445.9375 222.554688 C 474.417969 222.554688 498.59375 237.867188 501.820312 264.734375 L 477.90625 264.734375 C 474.417969 250.761719 462.058594 243.507812 445.128906 243.507812 C 429.28125 243.507812 416.652344 251.300781 416.652344 263.121094 C 416.652344 273.867188 425.789062 278.167969 442.980469 281.390625 L 457.222656 284.078125 C 486.507812 289.722656 505.3125 301.003906 505.3125 324.917969 C 505.3125 352.859375 478.445312 368.441406 449.699219 368.441406 C 418.800781 368.441406 392.742188 352.859375 389.515625 321.691406 M 271.304688 282.464844 L 354.589844 282.464844 C 352.980469 259.09375 335.785156 244.046875 313.214844 244.046875 C 291.722656 244.046875 273.722656 258.554688 271.304688 282.464844 M 315.367188 368.171875 C 276.945312 368.171875 245.777344 339.960938 245.777344 294.558594 C 245.777344 249.957031 278.289062 222.820312 313.753906 222.820312 C 349.21875 222.820312 380.921875 247.808594 380.921875 296.707031 L 380.921875 302.886719 L 271.570312 302.886719 C 273.988281 329.214844 292.527344 346.679688 316.171875 346.679688 C 332.558594 346.679688 347.066406 340.5 354.320312 325.453125 L 379.578125 325.453125 C 371.515625 354.46875 343.304688 368.171875 315.367188 368.171875 M 207.898438 294.289062 L 207.898438 365.21875 L 181.03125 365.21875 L 181.03125 294.289062 L 111.984375 177.148438 L 143.148438 177.148438 L 195.273438 267.421875 L 247.394531 177.148438 L 276.945312 177.148438 Z M 207.898438 294.289062 "/>
</g>
</svg>
